<svg xmlns="http://www.w3.org/2000/svg" viewBox="0 0 24 24" fill="currentColor">
  <path d="M19.5 12c0-1.232-.046-2.453-.138-3.662a4.006 4.006 0 0 0-3.7-3.7 48.678 48.678 0 0 0-7.324 0 4.006 4.006 0 0 0-3.7 3.7c-.017.22-.032.441-.046.662C4.318 10.678 4.5 12 6 12c1.5 0 2.5-1 3.5-1s2 1 3.5 1 2.5-1 3.5-1 2 1 3 1zM6 14c-1.5 0-2.318-.678-2.592-2.338-.092 1.209-.138 2.43-.138 3.662 0 .463.36.87.82.926a48.678 48.678 0 0 0 7.82 0c.46-.057.82-.463.82-.926V14c-1 0-2 1-3.5 1S7.5 14 6 14zm6-6a1 1 0 1 1 0-2 1 1 0 0 1 0 2z"/>
</svg>