<svg viewBox="0 0 24 24" xmlns="http://www.w3.org/2000/svg">
  <path d="M6.915 4.03c-1.968 0-3.683 1.28-4.871 3.113C.704 9.208 0 11.883 0 14.449c0 .706.07 1.369.21 1.973a4.892 4.892 0 0 0 1.12 2.068c.541.563 1.208.862 1.965.862 1.116 0 2.09-.453 2.996-1.238.898-.777 1.74-1.833 2.543-3.116.695-1.11 1.326-2.376 1.91-3.793l.158-.393.163.395c.585 1.418 1.217 2.685 1.913 3.796.803 1.282 1.646 2.337 2.546 3.114.907.784 1.882 1.236 2.998 1.236.757 0 1.424-.299 1.965-.862.547-.57.9-1.29 1.12-2.069a8.794 8.794 0 0 0 .21-1.972c0-2.567-.706-5.24-2.048-7.305C18.768 5.31 17.052 4.03 15.085 4.03c-1.163 0-2.153.461-3.058 1.257-.886.78-1.71 1.842-2.49 3.115a33.75 33.75 0 0 0-.539.908 33.99 33.99 0 0 0-.538-.907c-.78-1.273-1.604-2.335-2.49-3.115-.905-.796-1.895-1.257-3.058-1.257h.003zm0 1.975c.658 0 1.295.298 1.972.934.684.642 1.354 1.586 2.018 2.73.706 1.216 1.31 2.53 1.84 3.882.329.842.623 1.682.892 2.512-.292.32-.59.608-.893.86-.863.723-1.71 1.08-2.534 1.08-.417 0-.766-.133-1.052-.398a3.073 3.073 0 0 1-.737-1.28 7.2 7.2 0 0 1-.15-1.478c0-2.166.583-4.492 1.676-6.27.267-.434.549-.823.848-1.163.163-.185.332-.354.507-.505.092-.08.187-.154.284-.221a1.613 1.613 0 0 1-.67-.683zm8.166 0c-.229.052-.447.137-.664.248-.094.048-.187.1-.28.156-.175.103-.348.224-.518.363-.3.245-.596.538-.887.877-.573.669-1.116 1.512-1.612 2.49-.952 1.874-1.5 4.138-1.5 6.23 0 .53.043 1.024.128 1.477a3.07 3.07 0 0 1-.154-.477 5.029 5.029 0 0 1-.108-.637c-.038-.348-.055-.714-.055-1.093 0-2.086.551-4.33 1.514-6.197.498-.966 1.045-1.8 1.622-2.463.292-.336.59-.625.892-.864a5.07 5.07 0 0 1 .518-.363c.093-.056.187-.108.281-.156.217-.111.435-.196.664-.248l.159-.031z" fill="currentColor"/>
</svg>
